# xmcd CD database file
#
# Track frame offsets:
#	150
#	22250
#	35125
#	50750
#	70775
#	94225
#	113950
#	130000
#	148037
#	162125
#	181150
#	190637
#	206237
#	232212
#	243125
#	251675
#	266725
#	285362
#	298425
#	312562
#	324800
#
# Disc length: 4549 seconds
#
# Revision: 0
# Processed by: cddbd v1.4PL0 Copyright (c) Steve Scherf et al.
# Submitted via: CDex 1.50
#
DISCID=4711c315
DTITLE=Don Shirley - Water Boy - The Gospel According To Don Shirley
DYEAR=2003
DGENRE=Jazz
TTITLE0=Water Boy
TTITLE1=Oh Bess, Oh Where's My Bess (from "Porgy and Bess")
TTITLE2=In a Moorish Marketplace
TTITLE3=The Man I Love
TTITLE4=This Nearly Was Mine (from "South Pacific")
TTITLE5=Blue Skies
TTITLE6=Adieu Madraz
TTITLE7=By Myself
TTITLE8=Freedom
TTITLE9=When Your Lover Has Gone
TTITLE10=I'll Drown In My Tears
TTITLE11=Climb Every Mountain (from "The Sound of Music")
TTITLE12=Trilogy
TTITLE13=Jesus Keep Me Near the Cross
TTITLE14=Glory Burdens Down Lord
TTITLE15=When The Saints Go Marching In
TTITLE16=I've Been 'Buked
TTITLE17=He's Got the Whole World in His Hands
TTITLE18=I Wish I Knew How It Would Feel To Be Free
TTITLE19=Blowin' In the Wind
TTITLE20=Dream of a Time
EXTD=YEAR: 2003
EXTT0=
EXTT1=
EXTT2=
EXTT3=
EXTT4=
EXTT5=
EXTT6=
EXTT7=
EXTT8=
EXTT9=
EXTT10=
EXTT11=
EXTT12=
EXTT13=
EXTT14=
EXTT15=
EXTT16=
EXTT17=
EXTT18=
EXTT19=
EXTT20=
PLAYORDER=
